<svg width="16" height="16" viewBox="0 0 16 16" fill="none" xmlns="http://www.w3.org/2000/svg">
<g clip-path="url(#clip0_2_8857)">
<path fill-rule="evenodd" clip-rule="evenodd" d="M3.93707 3.4353H12.0818C12.2761 3.4353 12.4557 3.52845 12.5526 3.67958L14.9255 7.37955C15.0485 7.57143 15.012 7.81361 14.8365 7.9692L8.30501 13.7592C8.09343 13.9468 7.75307 13.9468 7.5415 13.7592L1.01889 7.97703C0.839288 7.81782 0.805657 7.56856 0.937726 7.3755L3.47416 3.66771C3.57295 3.52331 3.74824 3.4353 3.93707 3.4353ZM11.0302 5.08721V6.12536H8.71008V6.84515C10.3395 6.92207 11.5621 7.23799 11.5712 7.61666L11.5711 8.40605C11.562 8.78472 10.3395 9.10063 8.71008 9.17755V10.944H7.16949V9.17755C5.54001 9.10063 4.31746 8.78472 4.30839 8.40605L4.30845 7.61666C4.31751 7.23799 5.54001 6.92207 7.16949 6.84515V6.12536H4.84938V5.08721H11.0302ZM7.93978 8.63523C9.67873 8.63523 11.1322 8.36809 11.4879 8.01135C11.1863 7.70883 10.0952 7.47075 8.71008 7.40536V8.15898C8.4618 8.1707 8.20409 8.17687 7.93978 8.17687C7.67547 8.17687 7.41775 8.1707 7.16949 8.15898V7.40536C5.78435 7.47075 4.6933 7.70883 4.39166 8.01135C4.74737 8.36809 6.20083 8.63523 7.93978 8.63523Z" fill="#FF7300"/>
</g>
<defs>
<clipPath id="clip0_2_8857">
<rect width="13.8667" height="10.6667" fill="white" transform="translate(0.799988 3.33331)"/>
</clipPath>
</defs>
</svg>
